# xmcd CD database file
#
# Track frame offsets:
#	150
#	21975
#	41300
#	74400
#
# Disc length: 1095 seconds
#
# Revision: 0
# Processed by: cddbd v1.5.1PL0 Copyright (c) Steve Scherf et al.
# Submitted via: CDex 1.51
#
DISCID=2e044504
DTITLE=jeanne - Fearful Dream (Single)
DYEAR=1997
DGENRE=JPop
TTITLE0=Fearful Dream
TTITLE1=Turns you on
TTITLE2=Fearful Dream (Instrumental)
TTITLE3=Data Track
EXTD=YEAR: 1997
EXTT0=
EXTT1=
EXTT2=
EXTT3=
PLAYORDER=
